<svg width="64" height="64" viewBox="0 0 24 24" fill="none" xmlns="http://www.w3.org/2000/svg">
<path d="M18.8319 8.53415L12.036 15.2719L5.29874 8.47607C5.11226 8.28767 4.80818 8.28671 4.62002 8.47319C4.43186 8.65967 4.43066 8.96375 4.61714 9.15167L11.6237 16.2192C11.7113 16.3075 11.8241 16.3543 11.9386 16.3605C11.9719 16.3625 12.0053 16.3603 12.0382 16.3555C12.0511 16.3574 12.0636 16.3605 12.0766 16.3608C12.2071 16.3677 12.3403 16.3219 12.4402 16.2225L19.5075 9.21551C19.6959 9.02903 19.6971 8.72519 19.5103 8.53679C19.3236 8.34839 19.0198 8.34743 18.8319 8.53415Z" fill="white" stroke="white" stroke-width="0.64"/>
</svg>
